<mxfile host="drawio-plugin" modified="2022-04-23T18:03:58.781Z" agent="5.0 (Macintosh; Intel Mac OS X 10_15_7) AppleWebKit/537.36 (KHTML, like Gecko) Chrome/97.0.4692.45 Safari/537.36" etag="UxP0Gy9emkLQakXcWUqG" version="15.5.4" type="embed"><diagram id="DMmRqQQK-iC9rHZrEUie" name="Page-1"><mxGraphModel dx="1255" dy="1280" grid="1" gridSize="10" guides="1" tooltips="1" connect="1" arrows="1" fold="1" page="1" pageScale="1" pageWidth="850" pageHeight="1100" math="0" shadow="0"><root><mxCell id="0"/><mxCell id="1" parent="0"/><mxCell id="12" value="Computer" style="rounded=1;whiteSpace=wrap;html=1;strokeWidth=3;fontSize=16;" parent="1" vertex="1"><mxGeometry x="120" y="200" width="160" height="60" as="geometry"/></mxCell><mxCell id="2" value="Mount Computer" style="rounded=1;whiteSpace=wrap;html=1;strokeWidth=3;fontSize=16;" parent="1" vertex="1"><mxGeometry x="520" y="200" width="120" height="60" as="geometry"/></mxCell><mxCell id="4" value="" style="endArrow=classic;startArrow=classic;html=1;strokeWidth=3;" parent="1" target="2" edge="1"><mxGeometry width="50" height="50" relative="1" as="geometry"><mxPoint x="280" y="230" as="sourcePoint"/><mxPoint x="430" y="400" as="targetPoint"/></mxGeometry></mxCell><mxCell id="5" value="IP Communication&lt;br&gt;Ports:&amp;nbsp;3490 / 3492" style="text;strokeColor=none;fillColor=none;html=1;fontSize=16;fontStyle=1;verticalAlign=middle;align=center;" parent="1" vertex="1"><mxGeometry x="330" y="180" width="150" height="40" as="geometry"/></mxCell><mxCell id="10" value="Mount" style="rounded=1;whiteSpace=wrap;html=1;strokeWidth=3;fontSize=16;" parent="1" vertex="1"><mxGeometry x="680" y="200" width="120" height="60" as="geometry"/></mxCell><mxCell id="11" value="" style="endArrow=classic;startArrow=classic;html=1;exitX=1;exitY=0.5;exitDx=0;exitDy=0;strokeWidth=3;entryX=0;entryY=0.5;entryDx=0;entryDy=0;" parent="1" source="2" target="10" edge="1"><mxGeometry width="50" height="50" relative="1" as="geometry"><mxPoint x="560" y="319" as="sourcePoint"/><mxPoint x="620" y="310" as="targetPoint"/></mxGeometry></mxCell><mxCell id="13" value="MountWizzard4" style="rounded=1;whiteSpace=wrap;html=1;strokeWidth=3;fontSize=16;" parent="1" vertex="1"><mxGeometry x="120" y="80" width="160" height="40" as="geometry"/></mxCell><mxCell id="15" value="" style="endArrow=none;startArrow=classic;html=1;strokeWidth=3;exitX=0.5;exitY=0;exitDx=0;exitDy=0;entryX=0.5;entryY=1;entryDx=0;entryDy=0;startFill=1;endFill=0;" edge="1" parent="1" source="12" target="13"><mxGeometry width="50" height="50" relative="1" as="geometry"><mxPoint x="290" y="240" as="sourcePoint"/><mxPoint x="530" y="240" as="targetPoint"/></mxGeometry></mxCell><mxCell id="16" value="Application" style="edgeLabel;html=1;align=center;verticalAlign=middle;resizable=0;points=[];" vertex="1" connectable="0" parent="15"><mxGeometry x="0.025" y="1" relative="1" as="geometry"><mxPoint as="offset"/></mxGeometry></mxCell></root></mxGraphModel></diagram></mxfile>